<svg width="21" height="15" viewBox="0 0 21 15" fill="none" xmlns="http://www.w3.org/2000/svg">
<path fill-rule="evenodd" clip-rule="evenodd" d="M15.4688 8.9375C16.9875 8.9375 18.2188 10.1687 18.2188 11.6875C18.2188 13.2063 16.9875 14.4375 15.4688 14.4375C14.1874 14.4375 13.1106 13.5611 12.8054 12.375H7.81964C7.51436 13.5611 6.43764 14.4375 5.15625 14.4375C3.63747 14.4375 2.40625 13.2063 2.40625 11.6875C2.40625 10.1687 3.63747 8.9375 5.15625 8.9375C6.43764 8.9375 7.51436 9.8139 7.81964 11H12.8054C13.1106 9.8139 14.1874 8.9375 15.4688 8.9375ZM5.15625 10.3125C4.39686 10.3125 3.78125 10.9281 3.78125 11.6875C3.78125 12.4469 4.39686 13.0625 5.15625 13.0625C5.91564 13.0625 6.53125 12.4469 6.53125 11.6875C6.53125 10.9281 5.91564 10.3125 5.15625 10.3125ZM15.4688 10.3125C14.7094 10.3125 14.0938 10.9281 14.0938 11.6875C14.0938 12.4469 14.7094 13.0625 15.4688 13.0625C16.2281 13.0625 16.8438 12.4469 16.8438 11.6875C16.8438 10.9281 16.2281 10.3125 15.4688 10.3125Z" fill="#757575"/>
<path fill-rule="evenodd" clip-rule="evenodd" d="M14.4375 0C14.8172 0 15.125 0.307804 15.125 0.6875V9.90027C15.1249 10.2798 14.8171 10.5878 14.4375 10.5878C14.0579 10.5878 13.7501 10.2798 13.75 9.90027V8.25H1.375V11H3.09375C3.47345 11 3.78125 11.3078 3.78125 11.6875C3.78125 12.0672 3.47345 12.375 3.09375 12.375H1.375C1.01033 12.375 0.660695 12.23 0.402832 11.9722C0.144969 11.7143 0 11.3647 0 11V1.375C0 1.01033 0.14497 0.660695 0.402832 0.402832C0.660694 0.14497 1.01033 0 1.375 0H14.4375ZM1.375 6.875H13.75V1.375H1.375V6.875Z" fill="#757575"/>
<path d="M17.642 1.36975C18.483 1.37135 19.2331 1.88715 19.5434 2.66284L20.5686 5.22754C20.5794 5.25251 20.5883 5.27835 20.5961 5.30475C20.5991 5.31458 20.6017 5.32442 20.6042 5.33429C20.6071 5.34606 20.6099 5.35787 20.6122 5.36987C20.6143 5.38036 20.6154 5.39093 20.6169 5.40143C20.6187 5.41366 20.6205 5.42592 20.6216 5.43835C20.6228 5.45158 20.6232 5.46477 20.6237 5.47796C20.6239 5.48529 20.625 5.49274 20.625 5.50012V11.0001C20.625 11.3647 20.48 11.7145 20.2222 11.9723C19.9643 12.2301 19.6146 12.3751 19.25 12.3751H17.5312C17.1516 12.3751 16.8438 12.0671 16.8438 11.6875C16.8438 11.3078 17.1516 11.0001 17.5312 11.0001H19.25V6.18762H14.4375C14.0578 6.18762 13.7501 5.87976 13.75 5.50012C13.75 5.12042 14.0578 4.81262 14.4375 4.81262H18.9217L18.2664 3.17377C18.1626 2.91412 17.9135 2.74527 17.6393 2.74475C17.1056 2.74373 16.5778 2.74577 16.0482 2.74743C15.6285 2.74875 15.2073 2.75012 14.7812 2.75012C14.4016 2.75012 14.0938 2.44226 14.0938 2.06262C14.0938 1.68292 14.4016 1.37512 14.7812 1.37512C15.1954 1.37512 15.6147 1.37374 16.0354 1.37243C16.5716 1.37077 17.11 1.36874 17.642 1.36975Z" fill="#757575"/>
</svg>
